<svg width="38" height="31" viewBox="0 0 38 31" fill="none" xmlns="http://www.w3.org/2000/svg">
<path d="M34.2 13H3.8C0.5 13 0 14.1193 0 15.5C0 16.8807 0.5 18 3.8 18H34.2C37.5 18 38 16.8807 38 15.5C38 14.1193 37.5 13 34.2 13Z" fill="#C3C3C3"/>
<path d="M34.2 1H3.8C0.5 1 0 2.1193 0 3.5C0 4.8807 0.5 6 3.8 6H34.2C37.5 6 38 4.8807 38 3.5C38 2.1193 37.5 1 34.2 1Z" fill="#C3C3C3"/>
<path d="M34.2 24.6001H3.8C0.5 24.6001 0 25.7194 0 27.1001C0 28.4808 0.5 29.6001 3.8 29.6001H34.2C37.5 29.6001 38 28.4808 38 27.1001C38 25.7194 37.5 24.6001 34.2 24.6001Z" fill="#C3C3C3"/>
</svg>
